<svg xmlns="http://www.w3.org/2000/svg" viewBox="0 0 200 200"><title>coca-cola-disc</title><path d="M200 100a100 100 0 1 0-100 100 100 100 0 0 0 100-100z" fill="#f40000"/><path d="M88.87 126.68a23.69 23.69 0 0 0-14.29-4.2 8.66 8.66 0 0 0-6.93 3.78c-2.1-3.78-6.51-6.09-13-6.09-10.71.21-21.43 5-29.83 5-8 0-13.87-5-13.87-14.08.42-15.76 13.66-30 23.74-36.34C40.34 71 45.17 70 48.32 70.38c2.31.21 5 2.94 3.36 6.72-2.52 5.67-6.09 5.25-5.88 2.52a4.76 4.76 0 0 1 2.1-3.57 3.79 3.79 0 0 1 2.1-.42c.42-.42.84-3.57-3.15-2.52-4.2 1.05-9 5-13.87 10.29-4.62 5.25-12 15.13-13.87 25.42-.84 4.83-.21 13.45 11.13 13.45 9.66 0 23.95-6.51 37-6.3a25.58 25.58 0 0 1 13 3.57c3.16 1.89 7.15 5.04 8.63 7.14zm2.94-28.78h1.89s-9.87 14.29-15.55 13.66c-3.15-.42-2.1-4.2-2.1-4.2s-4.41 5-8.4 4.2c-3.57-.84-1.26-6.93-1.26-6.93-.42.21-8.4 9-13.87 6.93-5.88-2.31-2.73-9.66-1.68-12 .84-1.89 1.89-3.78 1.89-3.78s-.84.21-1.47.42a5.54 5.54 0 0 1-1.47.21s-2.73 4.41-4.41 6.72-8.82 9.87-13 8.4-3.15-7.35-.84-12.18c3.78-7.56 13-16.81 18.49-15.55 5.46 1.47 1.05 10.29 1.05 10.29s1.05.21 3.78-1.68c3.78-2.52 8.82-9.66 14.29-8.82 2.52.42 4.83 2.94 1.68 8-1.05 1.68-2.73 2.94-4.2 1.68-.84-.84-.21-2.52.84-3.57a3.55 3.55 0 0 1 2.94-1.26s.84-2.1-1.47-2.1c-1.89 0-6.51 4.41-9.24 8.61-2.52 4-6.09 10.71-2.31 12.18 3.36 1.26 9.87-6.3 12.82-10.29s9.66-13 15.34-13.45c1.89-.21 3.15 1.68 3.15 1.68l.59-1.07H95s-10.76 17.89-11.6 19.36c-.63 1.05-1.47 3.36.84 2.1 2.52-1.05 7.57-7.56 7.57-7.56zM47.9 96.22A15 15 0 0 1 45 95a5.42 5.42 0 0 1-2.1-2.31h-.21A30.14 30.14 0 0 0 40.34 96c-2.1 2.94-5 9-2.31 10.08 1.89.63 4.83-2.52 6.51-4.62a38.92 38.92 0 0 0 3.36-5zm2.1-9.46c-1.47-1.05-5.25 1.47-5.25 4.2s3.36 3.57 3.78 3.57a.46.46 0 0 0 .63-.21 22.27 22.27 0 0 0 1.05-2.52c.63-1.46 1.26-3.98-.21-5.04zm29 14.71c2.31-3.15 8.61-14.08 8.61-14.08a.82.82 0 0 0-.84-.84c-.84 0-2.31.21-5.25 4a53.57 53.57 0 0 0-6.73 9.45c-1.89 3.36-2.52 5.67-1.47 6.3a1.57 1.57 0 0 0 1.05.21 7.24 7.24 0 0 0 2.73-2.31 16.18 16.18 0 0 1 1.9-2.73zm25.63-17h-5.47l-2.94 4.83h5.46zm70.59 36.76a2.15 2.15 0 1 0 1.47.63 1.91 1.91 0 0 0-1.48-.64zm2.31 1.89a2.17 2.17 0 1 1-.63-1.68 2.79 2.79 0 0 1 .62 1.67zm-1.68-.42c0-.21 0-.21-.21-.42h-.84v.84h.84c.2-.01.2-.22.2-.43zm-1.47-.84h1.47c.21.21.42.42.42.63s0 .42-.21.42a.73.73 0 0 1-.42.21.73.73 0 0 1 .42.21c0 .21.21.21.21.42v.63h-.42v-.21a.77.77 0 0 0-.21-.63h-.84v1.05h-.42zm9.87-46.22c-4 2.52-9.45 4.83-14.92 4.41-1.26 1.47-2.73 2.94-4.2 4.83 9.24 1.89 17.23-4 21.64-8.82a24.31 24.31 0 0 0 4-5.67 47.48 47.48 0 0 1-6.53 5.24zm-16 41.81c-.84 1.26-1.68 3.57.84 2.1 3.15-1.68 7.35-8.4 7.35-8.4h1.89a52.62 52.62 0 0 1-6.09 8c-3.15 3.36-6.93 6.51-9.66 6.3-3.15-.42-2.1-4.41-2.1-4.41s-4.41 4.83-7.56 4.41c-4.2-.42-2.94-5.67-2.94-5.67s-4.62 5.88-8 5.67c-5-.21-3.78-6.51-2.31-10.71.84-2.31 1.47-4.2 1.47-4.2a4.3 4.3 0 0 1-1.68.21 11.31 11.31 0 0 0-1.68.21 53.92 53.92 0 0 1-3.78 5.88c-1.68 2.31-8.82 9.87-13 8.4-3.78-1.47-2.52-7.35-.42-12.18 3.36-6.93 12.61-16.81 17.86-15.55 5.46 1.26.21 11.55.21 11.55h1.05a13.84 13.84 0 0 0 2.1-.63s5.67-11.76 11.76-19.33 18.49-20.8 23.32-17.65c1.26.84.63 3.57-.84 6.72-.63.21-1.47.42-2.1.63a17.69 17.69 0 0 0 1.89-4.62c.63-4-8.4 4.41-15.13 13.45a138.49 138.49 0 0 0-10.5 17s1.26-.84 3.36-2.52a113.55 113.55 0 0 0 8.4-7.77 99.78 99.78 0 0 0 7.14-8.19c.63 0 1.47-.21 2.1-.21a98.81 98.81 0 0 1-7.77 9.24 88.11 88.11 0 0 1-8 7.56 74.9 74.9 0 0 1-6.93 5.25s-5.88 11.55-2.73 12.39c1.89.42 5.46-5.25 5.46-5.25s4.83-7.35 7.56-10.5c4-4.41 7.35-6.93 10.71-7.14 1.89 0 3.15 2.1 3.15 2.1l.84-1.47h5.67c.63 0-10.08 18.07-10.92 19.33zm-31.72-7.14a9.21 9.21 0 0 1-2.52-1.68 8.09 8.09 0 0 1-1.89-2.31h-.21s-.21.21-2.31 3.15-5 9-2.31 10.08c1.89.63 4.83-2.52 6.51-4.62a26.94 26.94 0 0 0 2.94-4.62c-.19.19-.19.19-.19-.02zm2.73-4.83c.42-1.47 1.26-4-.21-5s-5.25 1.47-5.25 4.2 2.73 4 3.36 4.2c.42 0 .42 0 .63-.21a23.64 23.64 0 0 0 1.5-3.21zm32.56-3.78a.65.65 0 0 0 .21-.42.82.82 0 0 0-.84-.84c-.84 0-2.1.21-5.25 3.57a46.87 46.87 0 0 0-6.72 9.45c-1.89 3.36-2.52 5.67-1.47 6.3a1.57 1.57 0 0 0 1.05.21 7.24 7.24 0 0 0 2.73-2.31 13.09 13.09 0 0 0 1.89-2.52c2.34-2.96 7.38-11.78 8.43-13.46zm12.39-26.05c-4 2.52-9.45 4.83-14.92 4.41-1.26 1.47-2.73 2.94-4.2 4.83 9.24 1.89 17.23-4 21.64-8.82a24.31 24.31 0 0 0 4-5.67 47.48 47.48 0 0 1-6.49 5.23zm-26.05 6.72c-4.41-2.31-7.56-5-10.92-6.72-3.15-1.68-5.25-2.31-7.77-1.89a4.27 4.27 0 0 0-1.05.21s1.26 4.41-4 12-10.08 7.56-11.55 5.46c-1.47-2.31.42-6.72 3.57-10.71 3.15-4.2 8.82-7.77 8.82-7.77s-1.89-1.05-6.3 1.47-11.76 8.4-18.7 18.07c-6.93 9.87-8.19 15.34-9.24 19.54s0 8.82 4.62 8.82c4.83 0 10.29-7.14 11.76-9.66 2.94-4.62 4.83-11.76.84-10.92-1.47.63-3.15 2.73-4.2 4.83a18.86 18.86 0 0 0-1.47 4.2 15.49 15.49 0 0 0-3.78 2.31c-2.1 1.68-3.57 3.15-3.57 3.15s0-3.36 2.73-9c2.73-5.46 7.77-8 10.5-8.19 2.52-.21 5.88 1.89 3.15 9.87s-11.1 17.56-19.71 17.77c-8 .21-13.24-10.08-2.1-28.15 12.39-19.75 26.89-25.84 31.72-26.47 4.62-.63 6.3 1.47 6.3 1.47a19.43 19.43 0 0 1 9-1.47c5.71.41 10.33 4.41 16.19 7.35a50.36 50.36 0 0 0-4.81 4.41zm-21.43-7.77s-3.36 1.26-7.35 5.67-6.3 9.24-4.41 10.5c.63.42 2.1.63 4.83-1.89a21.65 21.65 0 0 0 5.67-8c1.92-4.41 1.29-6.3 1.29-6.3z" fill="#fff"/></svg>